<svg version="1.1" xmlns="http://www.w3.org/2000/svg" xmlns:xlink="http://www.w3.org/1999/xlink" width="164.8117" height="181.81149" viewBox="0,0,164.8117,181.81149"><g transform="translate(-156.85574,-89.03501)"><g data-paper-data="{&quot;isPaintingLayer&quot;:true}" fill-rule="nonzero" stroke-width="6.5" stroke-linecap="butt" stroke-linejoin="miter" stroke-miterlimit="10" stroke-dasharray="" stroke-dashoffset="0" style="mix-blend-mode: normal"><path d="M245.01075,206.09185l2.81142,-15.2429l14.25949,2.63005l-2.81142,15.2429z" fill="#eeeeee" stroke="#000000"/><path d="M260.8021,244.6886l0.78044,-19.73458l14.48867,0.57298l-0.78044,19.73458z" fill="#eeeeee" stroke="#000000"/><path d="M236.5089,232.16009l6.04117,-14.27426l13.35333,5.65142l-6.04116,14.27425z" fill="#eeeeee" stroke="#000000"/><path d="M285.22409,243.04257l-1.43981,-15.43298l14.4373,-1.34692l1.43981,15.43298z" fill="#eeeeee" stroke="#000000"/><path d="M269.65795,208.40384l-4.38698,-14.86622l13.90711,-4.10393l4.38698,14.86622z" fill="#eeeeee" stroke="#000000"/><path d="M288.8187,208.35884l0.7002,-18.29703l14.48644,0.89332l-0.7002,18.29703z" fill="#eeeeee" stroke="#000000"/><path d="M187.3531,255.24225c0.1386,-3.50466 0.45811,-11.58384 0.69926,-17.68183c0.17085,-4.32033 6.13619,-7.41549 15.09698,-7.06113c24.11803,0.95379 76.42388,4.0231 93.06994,4.6814c5.92613,0.23435 15.65806,4.00343 19.12694,9.09388c3.25326,4.77402 0.43352,10.8085 0.33493,13.30136c-0.26785,6.77258 -10.16333,9.9975 -18.90386,9.65184c-14.89448,-0.58903 -62.65084,-2.47764 -90.00045,-3.55923c-11.74464,-0.46446 -19.55385,-5.13644 -19.42374,-8.42631z" fill="#e5e5e5" stroke="#000000"/><path d="M179.42134,175.93432c-0.20623,-9.96205 -0.68169,-32.92731 -1.04055,-50.26096c-0.25424,-12.28062 5.82748,-21.86444 15.4697,-22.06407c19.71088,-0.40807 85.81116,-5.74975 113.89602,-0.8778c2.85764,0.49572 8.99424,4.94013 10.67092,15.28139c1.9659,12.12514 3.47803,47.24873 -5.85969,64.96479c-7.4816,14.19453 -25.42354,12.72051 -29.60719,12.80712c-0.02702,0.00056 -55.7304,0.90373 -81.85302,1.44455c-12.63778,0.26164 -21.48259,-11.94351 -21.67619,-21.29504z" fill="#e5e5e5" stroke="#000000"/><path d="M279.55597,122.2393c8.97271,-0.18576 16.42954,8.50413 16.65532,19.40942c0.22577,10.90529 -6.86502,19.89636 -15.83773,20.08212c-8.9727,0.18576 -16.42953,-8.50414 -16.65531,-19.40942c-0.22577,-10.90528 6.86501,-19.89635 15.83772,-20.08212z" fill="#000000" stroke="#000000"/><path d="M162.35901,236.93649c-0.03733,-19.57693 1.7773,-72.50761 1.7092,-108.23119c-0.03858,-20.24067 19.96799,-34.99662 35.84955,-35.02689c13.98149,-0.02665 41.2994,-1.32874 69.45469,-1.38241c-0.39592,0.65731 1.23399,2.59766 0.8857,3.33502c-0.58698,1.24272 -0.45546,2.73676 -0.99238,4.0019c-0.42019,0.99009 -1.36505,1.68706 -1.83294,2.65552c-1.81301,3.75267 11.19317,3.84909 10.57316,7.90154c-0.28732,1.87783 -15.14954,9.01984 -15.42505,10.89944c-0.29007,1.97885 0.39619,4.03734 0.01144,5.99999c-1.05372,5.37532 -1.76319,11.24028 -1.02213,16.82564c0.2316,1.74557 0.97967,3.41548 1.06406,5.17432c-0.79891,2.31868 -2.3318,4.34371 -3.8506,6.26928c-2.02327,2.56515 -0.09511,11.64023 -1.85285,14.64784c-2.16424,3.70317 -7.84615,1.42912 -8.30043,5.4896c-0.69637,6.22431 0.31656,7.19004 3.00501,12.68826c0.82449,1.6862 1.60713,3.40533 2.60237,4.99556c-0.00955,0.01984 -0.01866,0.03918 -0.02731,0.05793c-0.5227,1.13281 -0.36116,2.49772 -0.853,3.64426c-1.68255,3.92223 -4.9722,6.97958 -6.88577,10.79444c-0.47345,0.94387 -0.10908,2.16053 -0.55092,3.11961c-0.77173,1.67516 -3.09358,2.79224 -3.02166,4.63523c0.16766,4.29645 1.4661,8.67863 3.685,12.3616c1.25612,2.08492 4.0758,2.52412 6.29325,3.67769c-0.00672,0.19931 0.01192,0.39265 0.05338,0.53669c0.55915,1.94302 1.66503,3.68505 2.50424,5.52453c0.7757,1.70029 0.25035,6.06457 0.25246,7.17269c0.01463,7.67532 16.15573,5.07111 15.96795,12.60534c-0.01248,0.50072 -16.5142,9.78335 -16.53932,10.28515c-0.06011,0.00011 -2.4596,-3.37722 -3.85843,-4.78919c-5.6667,-5.71987 -20.10876,-21.41516 -20.35197,-21.4147c-22.70429,0.04329 -28.10967,6.05359 -39.44476,6.0752c-15.88155,0.03027 -29.0743,3.98801 -29.10197,-10.52983z" fill="#ff0000" stroke="#ff0000"/><path d="M160.10662,235.69078c-0.03733,-19.57693 1.7773,-72.50762 1.7092,-108.2312c-0.03858,-20.24067 19.96799,-34.99661 35.84955,-35.02689c13.98149,-0.02665 43.30179,-0.08254 71.45709,-0.13622c-0.39592,0.65731 -0.7684,1.35147 -1.11668,2.08883c-0.58698,1.24273 -0.45545,2.73676 -0.99238,4.0019c-0.42019,0.99009 -1.36505,1.68706 -1.83295,2.65552c-1.813,3.75267 11.19318,3.84908 10.57317,7.90154c-0.28732,1.87783 -15.14954,9.01984 -15.42506,10.89944c-0.29007,1.97885 0.39619,4.03734 0.01144,5.99999c-1.05372,5.37532 -1.76319,11.24029 -1.02213,16.82564c0.23159,1.74557 0.97966,3.41548 1.06406,5.17432c-0.79891,2.31869 -2.3318,4.34372 -3.8506,6.26929c-2.02326,2.56515 -0.0951,11.64023 -1.85284,14.64784c-2.16424,3.70317 -7.84615,1.42913 -8.30044,5.4896c-0.69637,6.22431 0.31655,7.19004 3.005,12.68826c0.82449,1.6862 1.60713,3.40533 2.60238,4.99557c-0.00955,0.01984 -0.01866,0.03918 -0.02731,0.05793c-0.5227,1.13281 -0.36116,2.49772 -0.853,3.64426c-1.68255,3.92223 -4.97221,6.97958 -6.88577,10.79444c-0.47345,0.94387 -0.10907,2.16052 -0.55092,3.1196c-0.77173,1.67516 -3.09358,2.79224 -3.02166,4.63523c0.16766,4.29645 1.4661,8.67864 3.685,12.3616c1.25612,2.08492 4.0758,2.52413 6.29325,3.6777c-0.00672,0.1993 0.01192,0.39264 0.05337,0.53668c0.55915,1.94302 1.66503,3.68506 2.50424,5.52453c0.7757,1.70029 0.25037,6.06456 0.25248,7.1727c0.01463,7.67532 16.15573,5.0711 15.96795,12.60534c-0.01249,0.50072 -15.01184,11.03049 -15.03694,11.53229c-0.30369,0.00057 -17.87524,-9.46595 -18.17848,-9.46536c-22.70429,0.04328 -26.853,9.55121 -38.18809,9.57281c-15.88154,0.03027 -37.86527,-17.49527 -37.89295,-32.01311z" fill="#1a7900" stroke="#000000"/><path d="M208.78807,124.10643c8.95304,0.62215 15.59792,9.9476 14.84178,20.82898c-0.75615,10.88138 -8.62699,19.19816 -17.58003,18.576c-8.95303,-0.62215 -15.59791,-9.94761 -14.84177,-20.82899c0.75614,-10.88138 8.62699,-19.19814 17.58002,-18.576z" fill="#000000" stroke="#000000"/><path d="M203.13772,146.3382c-0.48967,-2.34261 1.01242,-4.63862 3.35502,-5.12829c2.34261,-0.48967 4.63862,1.01243 5.1283,3.35503c0.48967,2.34261 -1.01243,4.63861 -3.35504,5.12829c-2.34261,0.48967 -4.63861,-1.01243 -5.12828,-3.35503z" fill="#000000" stroke="#ffea00"/><path d="M276.1527,145.37854c-0.48967,-2.34261 1.01242,-4.63862 3.35502,-5.12829c2.34261,-0.48967 4.63862,1.01243 5.1283,3.35503c0.48967,2.34261 -1.01243,4.63861 -3.35504,5.12829c-2.34261,0.48967 -4.63861,-1.01243 -5.12828,-3.35503z" fill="#000000" stroke="#ffea00"/></g></g></svg>