<svg version="1.1" xmlns="http://www.w3.org/2000/svg" xmlns:xlink="http://www.w3.org/1999/xlink" width="37.37502" height="36.625" viewBox="0,0,37.37502,36.625"><g transform="translate(-227.66666,-162.79169)"><g data-paper-data="{&quot;isPaintingLayer&quot;:true}" fill-rule="nonzero" stroke="#000000" stroke-width="2.5" stroke-linecap="butt" stroke-linejoin="miter" stroke-miterlimit="10" stroke-dasharray="" stroke-dashoffset="0" style="mix-blend-mode: normal"><path d="M254.00001,191.66669c5.33876,0 9.66667,1.45507 9.66667,3.25c0,1.79493 -4.32792,3.25 -9.66667,3.25c-5.33875,0 -9.66666,-1.45507 -9.66666,-3.25c0,-1.79493 4.32791,-3.25 9.66666,-3.25z" fill="#8d8d8d"/><path d="M254.12501,164.04169c5.33876,0 9.66667,1.45507 9.66667,3.25c0,1.79493 -4.32792,3.25 -9.66667,3.25c-5.33875,0 -9.66666,-1.45507 -9.66666,-3.25c0,-1.79493 4.32791,-3.25 9.66666,-3.25z" fill="#8d8d8d"/><path d="M240,164.83334c6.12116,0 11.08334,6.79035 11.08334,15.16667c0,8.37631 -4.96219,15.16666 -11.08334,15.16666c-6.12116,0 -11.08334,-6.79034 -11.08334,-15.16666c0,-8.37632 4.96219,-15.16667 11.08334,-15.16667z" fill="#c79100"/><path d="M229.11723,186.83535c0,-2.4089 0.2357,-8.92146 0.2357,-13.31717c0,-2.49057 2.46522,-4.30156 4.41941,-4.30156c2.31627,0 8.05382,0 12.25652,0c2.78158,0 4.77297,2.43039 4.77297,4.30156c0,2.38975 0.04626,8.56266 0.08082,12.83989c0.02059,2.54938 -2.25291,4.42531 -5.20734,4.42531c-4.16516,0 -9.65102,0 -11.90297,0c-1.95419,0 -4.65512,-2.16163 -4.65512,-3.94802z" fill="#8d8d8d"/></g></g></svg>