<svg version="1.1" xmlns="http://www.w3.org/2000/svg" xmlns:xlink="http://www.w3.org/1999/xlink" width="56.49498" height="77.36285" viewBox="0,0,56.49498,77.36285"><g transform="translate(-211.80379,-141.31873)"><g data-paper-data="{&quot;isPaintingLayer&quot;:true}" fill="#069e00" fill-rule="nonzero" stroke="#000000" stroke-width="2" stroke-linecap="butt" stroke-linejoin="miter" stroke-miterlimit="10" stroke-dasharray="" stroke-dashoffset="0" style="mix-blend-mode: normal"><path d="M253.18646,188.86652c-1.0937,-3.56015 -1.29072,-6.45693 -0.44976,-7.60171c0.1965,-0.2675 0.33531,-0.64313 0.74101,-0.79857c0.4057,-0.15544 0.82661,-0.07218 1.09577,0.09482c1.27665,0.79208 2.84197,2.73004 3.94405,6.31747c1.34926,4.39203 0.17786,4.90867 -1.29428,5.45764c-1.47214,0.54897 -2.68754,0.92238 -4.0368,-3.46965z"/><path d="M250.79116,199.47921c-9.7756,0.66115 -9.9585,-2.04407 -9.98749,-5.39442c-0.02899,-3.35035 0.10692,-6.07713 9.88252,-6.73828c7.98476,-0.54003 13.03764,1.09998 15.58838,3.03867c0.53778,0.40874 1.02448,1.18352 1.0242,2.11c-0.00028,0.92648 -0.64255,1.48929 -1.02547,2.08456c-1.63879,2.54755 -7.55809,4.36354 -15.48213,4.89947z"/><path d="M213.06576,157.20394c-0.15489,-0.64842 -0.5504,-1.34879 -0.26197,-2.17237c0.28842,-0.82358 0.96243,-1.36059 1.56779,-1.55634c2.87126,-0.92843 7.87348,-0.81176 14.80241,2.15615c8.48297,3.63356 7.75415,6.09958 6.68448,9.06849c-1.06967,2.96891 -2.07514,5.31643 -10.55811,1.68287c-6.87624,-2.94534 -11.57173,-6.40382 -12.23459,-9.1788z" data-paper-data="{&quot;index&quot;:null}"/><path d="M228.75459,189.42052c0,-22.54068 1.97605,-39.41352 5.37736,-44.13516c0.79477,-1.10328 1.51974,-2.94304 2.81295,-2.96663c1.2932,-0.02359 2.42064,1.34099 3.04196,2.85982c2.94694,7.20388 5.71319,21.52855 5.71319,44.24196c0,27.80764 -3.79337,28.26107 -8.47273,28.26107c-4.67936,0 -8.47273,-0.45343 -8.47273,-28.26107z"/></g></g></svg>