<svg version="1.1" xmlns="http://www.w3.org/2000/svg" xmlns:xlink="http://www.w3.org/1999/xlink" width="64.5" height="64.5" viewBox="0,0,64.5,64.5"><g transform="translate(-207.75,-147.75)"><g data-paper-data="{&quot;isPaintingLayer&quot;:true}" fill-rule="nonzero" stroke-linecap="butt" stroke-linejoin="miter" stroke-miterlimit="10" stroke-dasharray="" stroke-dashoffset="0" style="mix-blend-mode: normal"><path d="M209,180c0,-17.12082 13.87917,-31 31,-31c17.12083,0 31,13.87918 31,31c0,17.12082 -13.87917,31 -31,31c-17.12083,0 -31,-13.87917 -31,-31z" fill="#6f5b3f" stroke="#000000" stroke-width="2.5"/><g stroke-width="1"><path d="M222.78795,160.78231l5.54763,-0.51441l0.81778,8.81932l-5.54763,0.51441z" fill="#ff0000" stroke="#000000"/><text transform="translate(224.90517,161.85619) rotate(84.70076) scale(0.07325,0.07325)" font-size="40" xml:space="preserve" fill="#000000" fill-rule="nonzero" stroke="none" stroke-width="1" stroke-linecap="butt" stroke-linejoin="miter" stroke-miterlimit="10" stroke-dasharray="" stroke-dashoffset="0" font-family="Handwriting" font-weight="normal" text-anchor="start" style="mix-blend-mode: normal"><tspan x="0" dy="0">cards</tspan></text></g><g stroke="#000000"><path d="M248.32258,169.0837l0.7482,6.28899l-4.49213,0.53443l-0.7482,-6.28899z" fill="#ffffff" stroke-width="0.5"/><path d="M247.23106,172.36225l-0.53928,2.12331l-1.10879,-2.02861l0.53924,-1.99654z" fill="#ff0000" stroke-width="0"/><text transform="translate(248.67485,173.88924) rotate(173.21543) scale(0.03658,0.03658)" font-size="40" xml:space="preserve" fill="#ff0000" fill-rule="nonzero" stroke="#000000" stroke-width="0" stroke-linecap="butt" stroke-linejoin="miter" stroke-miterlimit="10" stroke-dasharray="" stroke-dashoffset="0" font-family="Sans Serif" font-weight="normal" text-anchor="start" style="mix-blend-mode: normal"><tspan x="0" dy="0">1</tspan></text><text transform="translate(244.25462,171.05821) rotate(-6.78457) scale(0.03658,0.03658)" font-size="40" xml:space="preserve" data-paper-data="{&quot;index&quot;:null}" fill="#ff0000" fill-rule="nonzero" stroke="#000000" stroke-width="0" stroke-linecap="butt" stroke-linejoin="miter" stroke-miterlimit="10" stroke-dasharray="" stroke-dashoffset="0" font-family="Sans Serif" font-weight="normal" text-anchor="start" style="mix-blend-mode: normal"><tspan x="0" dy="0">1</tspan></text></g><g><path d="M236.39785,168.69032l-0.91339,6.26713l-4.47652,-0.65242l0.91339,-6.26713z" fill="#ffffff" stroke="#000000" stroke-width="0.5"/><text transform="translate(235.44778,173.3681) rotate(-171.70789) scale(0.03658,0.03658)" font-size="40" xml:space="preserve" fill="#ff0000" fill-rule="nonzero" stroke="none" stroke-width="1" stroke-linecap="butt" stroke-linejoin="miter" stroke-miterlimit="10" stroke-dasharray="" stroke-dashoffset="0" font-family="Sans Serif" font-weight="normal" text-anchor="start" style="mix-blend-mode: normal"><tspan x="0" dy="0">2</tspan></text><text transform="translate(231.9563,169.53874) rotate(8.29211) scale(0.03658,0.03658)" font-size="40" xml:space="preserve" data-paper-data="{&quot;index&quot;:null}" fill="#ff0000" fill-rule="nonzero" stroke="none" stroke-width="1" stroke-linecap="butt" stroke-linejoin="miter" stroke-miterlimit="10" stroke-dasharray="" stroke-dashoffset="0" font-family="Sans Serif" font-weight="normal" text-anchor="start" style="mix-blend-mode: normal"><tspan x="0" dy="0">2</tspan></text><path d="M234.58657,170.91708l-0.67071,1.19385l-0.33938,-1.40465l0.65008,-1.11734z" fill="#ff0000" stroke="none" stroke-width="0"/><path d="M233.2153,172.40153l-0.67071,1.19385l-0.33938,-1.40465l0.65008,-1.11734z" fill="#ff0000" stroke="none" stroke-width="0"/></g><g><path d="M242.0691,169.42086l-0.05157,6.33312l-4.52366,-0.03683l0.05157,-6.33312z" fill="#ffffff" stroke="#000000" stroke-width="0.5"/><text transform="translate(241.81204,174.23242) rotate(-179.53348) scale(0.03658,0.03658)" font-size="40" xml:space="preserve" fill="#ff0000" fill-rule="nonzero" stroke="#000000" stroke-width="0" stroke-linecap="butt" stroke-linejoin="miter" stroke-miterlimit="10" stroke-dasharray="" stroke-dashoffset="0" font-family="Sans Serif" font-weight="normal" text-anchor="start" style="mix-blend-mode: normal"><tspan x="0" dy="0">1</tspan></text><text transform="translate(237.78445,170.86613) rotate(0.46652) scale(0.03658,0.03658)" font-size="40" xml:space="preserve" data-paper-data="{&quot;index&quot;:null}" fill="#ff0000" fill-rule="nonzero" stroke="#000000" stroke-width="0" stroke-linecap="butt" stroke-linejoin="miter" stroke-miterlimit="10" stroke-dasharray="" stroke-dashoffset="0" font-family="Sans Serif" font-weight="normal" text-anchor="start" style="mix-blend-mode: normal"><tspan x="0" dy="0">1</tspan></text><path d="M241.0928,173.46728c-0.86224,0.76615 -1.20253,-0.49206 -1.20253,-0.49206c0,0 -0.59038,1.07033 -1.38293,0.39581c-0.91045,-0.77487 1.5433,-2.44214 1.5433,-2.44214c0,0 1.74491,1.91395 1.04217,2.53838z" fill="#ff0000" stroke="none" stroke-width="NaN"/></g></g></g></svg>