<svg version="1.1" xmlns="http://www.w3.org/2000/svg" xmlns:xlink="http://www.w3.org/1999/xlink" width="27.95808" height="43.63095" viewBox="0,0,27.95808,43.63095"><g transform="translate(-224.12529,-157.36193)"><g data-paper-data="{&quot;isPaintingLayer&quot;:true}" fill-rule="nonzero" stroke-linecap="butt" stroke-linejoin="miter" stroke-miterlimit="10" stroke-dasharray="" stroke-dashoffset="0" style="mix-blend-mode: normal"><path d="M244.61072,158.61193c1.89355,0 3.42857,1.45507 3.42857,3.25c0,1.79493 -1.53503,3.25 -3.42857,3.25c-1.89355,0 -3.42857,-1.45507 -3.42857,-3.25c0,-1.79493 1.53502,-3.25 3.42857,-3.25z" fill="#8d8d8d" stroke="#000000" stroke-width="2.5"/><path d="M239.75003,163.66668c6.12116,0 11.08334,6.79035 11.08334,15.16667c0,8.37631 -4.96219,15.16666 -11.08334,15.16666c-6.12116,0 -11.08334,-6.79034 -11.08334,-15.16666c0,-8.37632 4.96219,-15.16667 11.08334,-15.16667z" fill="#c79100" stroke="#000000" stroke-width="2.5"/><path d="" fill="#1a7900" stroke="#000000" stroke-width="2.5"/><path d="M244.17993,168.95352c3.5744,0 6.47202,3.4562 6.47202,7.71964c0,4.26344 -2.89762,7.71964 -6.47202,7.71964c-3.5744,0 -6.47202,-3.4562 -6.47202,-7.71964c0,-4.26344 2.89762,-7.71964 6.47202,-7.71964z" fill="#ff0000" stroke="none" stroke-width="0"/><path d="M244.82902,174.73328c2.63567,0 4.7723,2.54851 4.7723,5.69226c0,3.14375 -2.13663,5.69226 -4.7723,5.69226c-2.63567,0 -4.7723,-2.54851 -4.7723,-5.69226c0,-3.14375 2.13663,-5.69226 4.7723,-5.69226z" fill="#ff0000" stroke="none" stroke-width="0"/><path d="M228.75033,184.53936c0,-2.4089 0.2357,-8.92146 0.2357,-13.31717c0,-2.49057 2.46522,-4.30156 4.41941,-4.30156c2.31627,0 8.05382,0 12.25652,0c1.33442,0 2.48698,0.55934 3.32506,1.34795c-0.10401,0.08469 -0.20031,0.17849 -0.28768,0.28019c-0.87993,0.05708 -1.62199,0.61997 -1.93835,1.40085c-0.01695,-0.00072 -0.03395,-0.00125 -0.051,-0.0016c-0.2557,-0.10095 -0.53432,-0.15642 -0.8259,-0.15642c-1.24264,0 -2.25,1.00736 -2.25,2.25c0,0.11519 0.00866,0.22835 0.02535,0.33888c-0.58109,0.40683 -0.96107,1.08127 -0.96107,1.84446c0,0.57236 0.21371,1.0948 0.56569,1.49188c-0.53374,0.41141 -0.8776,1.05711 -0.8776,1.78312c0,0.1969 0.02529,0.38789 0.0728,0.5699c-0.1465,0.29865 -0.22876,0.63453 -0.22876,0.98962c0,0.24505 0.03918,0.48095 0.1116,0.70179c-0.07243,0.22083 -0.1116,0.45673 -0.1116,0.70179c0,0.71518 0.33367,1.35242 0.85383,1.76455c-0.04833,0.18346 -0.07407,0.3761 -0.07407,0.57474c0,0.94403 0.58138,1.75226 1.40563,2.0862c-0.00137,0.03221 -0.00206,0.06459 -0.00206,0.09714c0,0.83293 0.4526,1.56016 1.12528,1.94915c0.10461,0.59919 0.44626,1.1169 0.92477,1.45295c-0.37011,0.06544 -0.75659,0.09963 -1.1555,0.09963c-4.16516,0 -9.65102,0 -11.90297,0c-1.95419,0 -4.65512,-2.16163 -4.65512,-3.94802z" fill="#1a7900" stroke="#000000" stroke-width="2.5"/><path d="" fill="#734b2c" stroke="#000000" stroke-width="2.5"/><path d="M244.17977,193.24288c1.89355,0 3.42857,1.45507 3.42857,3.25c0,1.79493 -1.53503,3.25 -3.42857,3.25c-1.89354,0 -3.42857,-1.45507 -3.42857,-3.25c0,-1.79493 1.53503,-3.25 3.42857,-3.25z" fill="#8d8d8d" stroke="#000000" stroke-width="2.5"/><path d="M225.37533,184.28936c0,-2.4089 0.2357,-8.92146 0.2357,-13.31717c0,-2.49057 2.46522,-4.30156 4.41941,-4.30156c2.31627,0 8.05382,0 12.25652,0c1.33442,0 2.48698,0.55934 3.32506,1.34795c-0.10401,0.08469 -0.20031,0.17849 -0.28768,0.28019c-0.87993,0.05708 -1.62199,0.61997 -1.93835,1.40085c-0.01695,-0.00072 -0.03395,-0.00125 -0.051,-0.0016c-0.2557,-0.10095 -0.53432,-0.15642 -0.8259,-0.15642c-1.24264,0 -2.25,1.00736 -2.25,2.25c0,0.11519 0.00866,0.22835 0.02535,0.33888c-0.58109,0.40683 -0.96107,1.08127 -0.96107,1.84446c0,0.57236 0.21371,1.0948 0.56569,1.49188c-0.53374,0.41141 -0.8776,1.05711 -0.8776,1.78312c0,0.1969 0.02529,0.38789 0.0728,0.5699c-0.1465,0.29865 -0.22876,0.63453 -0.22876,0.98962c0,0.24505 0.03918,0.48095 0.1116,0.70179c-0.07243,0.22083 -0.1116,0.45673 -0.1116,0.70179c0,0.71518 0.33367,1.35242 0.85383,1.76455c-0.04833,0.18346 -0.07407,0.3761 -0.07407,0.57474c0,0.94403 0.58138,1.75226 1.40563,2.0862c-0.00137,0.03221 -0.00206,0.06459 -0.00206,0.09714c0,0.83293 0.4526,1.56016 1.12528,1.94915c0.10461,0.59919 0.44626,1.1169 0.92477,1.45295c-0.37011,0.06544 -0.75659,0.09963 -1.1555,0.09963c-4.16516,0 -9.65102,0 -11.90297,0c-1.95419,0 -4.65512,-2.16163 -4.65512,-3.94802z" fill="#8d8d8d" stroke="#000000" stroke-width="2.5"/></g></g></svg>