<svg version="1.1" xmlns="http://www.w3.org/2000/svg" xmlns:xlink="http://www.w3.org/1999/xlink" width="30.47051" height="43.63095" viewBox="0,0,30.47051,43.63095"><g transform="translate(-221.61285,-157.36193)"><g data-paper-data="{&quot;isPaintingLayer&quot;:true}" fill-rule="nonzero" stroke-linecap="butt" stroke-linejoin="miter" stroke-miterlimit="10" stroke-dasharray="" stroke-dashoffset="0" style="mix-blend-mode: normal"><path d="M244.61072,158.61193c1.89355,0 3.42857,1.45507 3.42857,3.25c0,1.79493 -1.53503,3.25 -3.42857,3.25c-1.89355,0 -3.42857,-1.45507 -3.42857,-3.25c0,-1.79493 1.53502,-3.25 3.42857,-3.25z" fill="#c79100" stroke="#000000" stroke-width="2.5"/><path d="M239.75002,163.66668c6.12116,0 11.08334,6.79035 11.08334,15.16667c0,8.37631 -4.96219,15.16666 -11.08334,15.16666c-6.12116,0 -11.08334,-6.79034 -11.08334,-15.16666c0,-8.37632 4.96219,-15.16667 11.08334,-15.16667z" fill="#c79100" stroke="#000000" stroke-width="2.5"/><path d="" fill="#1a7900" stroke="#000000" stroke-width="2.5"/><path d="M244.17992,168.95352c3.5744,0 6.47202,3.4562 6.47202,7.71964c0,4.26344 -2.89762,7.71964 -6.47202,7.71964c-3.5744,0 -6.47202,-3.4562 -6.47202,-7.71964c0,-4.26344 2.89762,-7.71964 6.47202,-7.71964z" fill="#ff0000" stroke="none" stroke-width="0"/><path d="M244.82901,174.73328c2.63567,0 4.7723,2.54851 4.7723,5.69226c0,3.14375 -2.13663,5.69226 -4.7723,5.69226c-2.63567,0 -4.7723,-2.54851 -4.7723,-5.69226c0,-3.14375 2.13663,-5.69226 4.7723,-5.69226z" fill="#ff0000" stroke="none" stroke-width="0"/><path d="M226.50033,184.41436c0,-2.4089 0.2357,-8.92146 0.2357,-13.31717c0,-2.49057 2.46522,-4.30156 4.41941,-4.30156c2.31627,0 8.05382,0 12.25652,0c1.33442,0 2.48698,0.55934 3.32506,1.34795c-0.10401,0.08469 -0.20031,0.17849 -0.28768,0.28019c-0.87993,0.05708 -1.62199,0.61997 -1.93835,1.40085c-0.01695,-0.00072 -0.03395,-0.00125 -0.051,-0.0016c-0.2557,-0.10095 -0.53432,-0.15642 -0.8259,-0.15642c-1.24264,0 -2.25,1.00736 -2.25,2.25c0,0.11519 0.00866,0.22835 0.02535,0.33888c-0.58109,0.40683 -0.96107,1.08127 -0.96107,1.84446c0,0.57236 0.21371,1.0948 0.56569,1.49188c-0.53374,0.41141 -0.8776,1.05711 -0.8776,1.78312c0,0.1969 0.02529,0.38789 0.0728,0.5699c-0.1465,0.29865 -0.22876,0.63453 -0.22876,0.98962c0,0.24505 0.03918,0.48095 0.1116,0.70179c-0.07243,0.22083 -0.1116,0.45673 -0.1116,0.70179c0,0.71518 0.33367,1.35242 0.85383,1.76455c-0.04833,0.18346 -0.07407,0.3761 -0.07407,0.57474c0,0.94403 0.58138,1.75226 1.40563,2.0862c-0.00137,0.03221 -0.00206,0.06459 -0.00206,0.09714c0,0.83293 0.4526,1.56016 1.12528,1.94915c0.10461,0.59919 0.44626,1.1169 0.92477,1.45295c-0.37011,0.06544 -0.75659,0.09963 -1.1555,0.09963c-4.16516,0 -9.65102,0 -11.90297,0c-1.95419,0 -4.65512,-2.16163 -4.65512,-3.94802z" fill="#1a7900" stroke="#000000" stroke-width="2.5"/><path d="" fill="#734b2c" stroke="#000000" stroke-width="2.5"/><path d="M246.17977,193.24288c1.89355,0 3.42857,1.45507 3.42857,3.25c0,1.79493 -1.53503,3.25 -3.42857,3.25c-1.89354,0 -3.42857,-1.45507 -3.42857,-3.25c0,-1.79493 1.53503,-3.25 3.42857,-3.25z" fill="#c79100" stroke="#000000" stroke-width="2.5"/><path d="M232.91319,166.4589c2.27413,-0.02411 4.38192,0.89663 6.08882,2.47179c-0.59457,0.40316 -0.97489,0.88049 -1.19003,1.39894c-0.28188,0.22919 -0.46198,0.57875 -0.46198,0.97037c0,0.29741 0.10387,0.57056 0.27731,0.78516c0.08078,0.56729 0.27403,1.1405 0.53103,1.68679l-0.43614,0.10904c-0.55665,0.12632 -0.9722,0.62414 -0.9722,1.21902c0,0.45779 0.24609,0.85809 0.61319,1.07585c-0.01118,0.16865 -0.00923,0.3365 0.00586,0.50166c-0.05602,0.06094 -0.11084,0.12354 -0.16441,0.18767c-0.46767,0.0734 -0.84929,0.40611 -0.9931,0.84636c-0.50017,0.16338 -0.86154,0.63372 -0.86154,1.18846c0,0.40976 0.19716,0.77346 0.50179,1.00143c-0.17878,1.24536 0.09401,2.43752 1.0028,3.0999c0.19319,0.44077 0.63334,0.74867 1.14541,0.74867c0.17014,0 0.33233,-0.03399 0.48017,-0.09555c0.08401,0.67075 0.36413,1.31005 0.86269,1.75539c0.00545,0.00487 0.01093,0.0097 0.01644,0.01448c0.03834,0.3161 0.23472,1.12568 1.2407,1.12568c0.17009,0 0.31704,-0.02315 0.444,-0.06314c0.05896,0.04123 0.12028,0.08276 0.18403,0.1246c0.03817,0.02505 0.07661,0.04753 0.11532,0.06757c-1.02832,1.84347 -2.43325,3.32908 -4.07564,4.27779c-0.51378,-1.91114 -2.7468,-1.22146 -3.85444,-1.52385c-0.71508,-0.19522 -1.33909,-0.9493 -2.07052,-0.85393c-0.47747,0.06226 -0.42954,1.1766 -0.90665,1.24212c-0.46074,0.06327 -0.62375,-1.03831 -1.08375,-0.96879c-0.80116,0.12108 -1.44479,0.52247 -1.97975,1.07631c-2.68817,-2.28324 -4.47175,-6.14227 -4.50974,-10.5358c-0.06125,-7.08374 4.43844,-12.87448 10.05034,-12.93398z" fill="#734b2c" stroke="#000000" stroke-width="2.5"/><path d="M226.92091,186.08657l-0.11649,-13.47216l10.9009,-0.11558c0.10035,0.4303 0.25841,0.85942 0.45303,1.27311l-0.43614,0.10904c-0.55665,0.12632 -0.9722,0.62414 -0.9722,1.21902c0,0.45779 0.24609,0.85809 0.61319,1.07585c-0.01118,0.16865 -0.00923,0.3365 0.00586,0.50166c-0.05602,0.06094 -0.11084,0.12354 -0.16441,0.18767c-0.46767,0.0734 -0.84929,0.40611 -0.9931,0.84636c-0.50017,0.16338 -0.86154,0.63372 -0.86154,1.18846c0,0.40976 0.19716,0.77346 0.50179,1.00143c-0.17878,1.24536 0.09401,2.43752 1.0028,3.0999c0.19319,0.44077 0.63334,0.74867 1.14541,0.74867c0.17014,0 0.33233,-0.03399 0.48017,-0.09555c0.06789,0.54207 0.26387,1.0636 0.59971,1.47882l0.00713,0.82431z" fill="#734b2c" stroke="#000000" stroke-width="2.5"/></g></g></svg>