<svg version="1.1" xmlns="http://www.w3.org/2000/svg" xmlns:xlink="http://www.w3.org/1999/xlink" width="41.35595" height="32.43076" viewBox="0,0,41.35595,32.43076"><g transform="translate(-219.18726,-166.01687)"><g data-paper-data="{&quot;isPaintingLayer&quot;:true}" fill-rule="nonzero" stroke="#000000" stroke-width="2.5" stroke-linecap="butt" stroke-linejoin="miter" stroke-miterlimit="10" stroke-dasharray="" stroke-dashoffset="0" style="mix-blend-mode: normal"><path d="M255.23966,177.68347c0.56517,6.09501 -5.73802,11.66295 -14.07856,12.43634c-8.34053,0.77339 -15.56003,-3.54065 -16.1252,-9.63566c-0.56517,-6.09501 5.73801,-11.66295 14.07855,-12.43634c8.34054,-0.77339 15.56004,3.54065 16.12521,9.63566z" fill="#161616"/><path d="M227.07547,185.60962c0.15723,5.81677 -1.20133,11.0049 -3.03442,11.588c-1.83309,0.5831 -3.44656,-3.65964 -3.60379,-9.47641c-0.15723,-5.81677 1.20133,-11.0049 3.03442,-11.588c1.83309,-0.5831 3.44656,3.65964 3.60379,9.47641z" fill="#161616"/><path d="M258.34462,178.15217c1.8688,0.47682 0.89115,5.02468 -2.18363,10.15793c-3.07478,5.13325 -7.08235,8.90803 -8.95115,8.43122c-1.8688,-0.47682 -0.89115,-5.02468 2.18363,-10.15793c3.07478,-5.13325 7.08235,-8.90803 8.95115,-8.43122z" data-paper-data="{&quot;index&quot;:null}" fill="#161616"/><path d="M233.05249,168.27778c2.39861,-0.22241 8.90511,-0.58903 13.28205,-0.99488c2.47993,-0.22995 4.5108,2.05753 4.69123,4.00337c0.21386,2.30638 0.74361,8.01942 1.13165,12.20417c0.25682,2.7697 -1.97932,4.97698 -3.8425,5.14975c-2.37954,0.22065 -8.52181,0.83665 -12.77758,1.26598c-2.53659,0.25589 -4.61442,-1.8347 -4.8872,-4.77651c-0.38457,-4.14737 -0.89108,-9.6098 -1.099,-11.85213c-0.18043,-1.94584 1.72259,-4.83482 3.50135,-4.99976z" fill="#fff700"/></g></g></svg>