<svg version="1.1" xmlns="http://www.w3.org/2000/svg" xmlns:xlink="http://www.w3.org/1999/xlink" width="621" height="507" viewBox="0,0,621,507"><g transform="translate(70.5,73.5)"><g data-paper-data="{&quot;isPaintingLayer&quot;:true}" fill-rule="nonzero" stroke-linecap="butt" stroke-linejoin="miter" stroke-miterlimit="10" stroke-dasharray="" stroke-dashoffset="0" style="mix-blend-mode: normal"><path d="M-69.5,432.5v-505h619v505z" fill="#dcd063" stroke="#000000" stroke-width="2"/><path d="M93.62816,306.68494c-1.0937,-3.56015 -1.29072,-6.45693 -0.44976,-7.60171c0.1965,-0.2675 0.33531,-0.64313 0.74101,-0.79857c0.4057,-0.15544 0.82661,-0.07218 1.09577,0.09482c1.27665,0.79208 2.84197,2.73004 3.94405,6.31747c1.34926,4.39203 0.17786,4.90867 -1.29428,5.45764c-1.47214,0.54897 -2.68754,0.92238 -4.0368,-3.46965z" fill="#069e00" stroke="#000000" stroke-width="2"/><path d="M91.23286,317.29763c-9.7756,0.66115 -9.9585,-2.04407 -9.98749,-5.39442c-0.02899,-3.35035 0.10692,-6.07713 9.88252,-6.73828c7.98476,-0.54003 13.03764,1.09998 15.58838,3.03867c0.53778,0.40874 1.02448,1.18352 1.0242,2.11c-0.00028,0.92648 -0.64255,1.48929 -1.02547,2.08456c-1.63879,2.54755 -7.55809,4.36354 -15.48213,4.89947z" fill="#069e00" stroke="#000000" stroke-width="2"/><path d="M53.50746,275.02236c-0.15489,-0.64842 -0.5504,-1.34879 -0.26197,-2.17237c0.28842,-0.82358 0.96243,-1.36059 1.56779,-1.55634c2.87126,-0.92843 7.87348,-0.81176 14.80241,2.15615c8.48297,3.63356 7.75415,6.09958 6.68448,9.06849c-1.06967,2.96891 -2.07514,5.31643 -10.55811,1.68287c-6.87624,-2.94534 -11.57173,-6.40382 -12.23459,-9.1788z" data-paper-data="{&quot;index&quot;:null}" fill="#069e00" stroke="#000000" stroke-width="2"/><path d="M69.19629,307.23894c0,-22.54068 1.97605,-39.41352 5.37736,-44.13516c0.79477,-1.10328 1.51974,-2.94304 2.81295,-2.96663c1.2932,-0.02359 2.42064,1.34099 3.04196,2.85982c2.94694,7.20388 5.71319,21.52855 5.71319,44.24196c0,27.80764 -3.79337,28.26107 -8.47273,28.26107c-4.67936,0 -8.47273,-0.45343 -8.47273,-28.26107z" fill="#069e00" stroke="#000000" stroke-width="2"/><path d="M205.25525,324.18494c-1.34926,4.39203 -2.56466,4.01862 -4.0368,3.46965c-1.47214,-0.54897 -2.64354,-1.06561 -1.29427,-5.45764c1.10208,-3.58743 2.66739,-5.52539 3.94405,-6.31747c0.26916,-0.167 0.69007,-0.25025 1.09577,-0.09481c0.4057,0.15544 0.54451,0.53107 0.74101,0.79856c0.84096,1.14478 0.64394,4.04155 -0.44976,7.6017z" fill="#069e00" stroke="#000000" stroke-width="2"/><path d="M159.16841,313.39817c-0.38293,-0.59527 -1.02519,-1.15808 -1.02548,-2.08456c-0.00028,-0.92648 0.48642,-1.70126 1.0242,-2.11001c2.55074,-1.93869 7.60363,-3.5787 15.58838,-3.03867c9.7756,0.66115 9.9115,3.38793 9.88251,6.73828c-0.02898,3.35035 -0.21188,6.05557 -9.98748,5.39442c-7.92404,-0.53593 -13.84333,-2.35192 -15.48213,-4.89947z" fill="#069e00" stroke="#000000" stroke-width="2"/><path d="M196.14134,337.70117c-8.48297,3.63356 -9.48843,1.28603 -10.55811,-1.68288c-1.06968,-2.96891 -1.7985,-5.43492 6.68447,-9.06848c6.92893,-2.9679 11.93115,-3.08458 14.80241,-2.15616c0.60536,0.19574 1.27937,0.73275 1.56779,1.55634c0.28843,0.82358 -0.10709,1.52396 -0.26198,2.17237c-0.66286,2.77499 -5.35836,6.23347 -12.23459,9.17881z" data-paper-data="{&quot;index&quot;:null}" fill="#069e00" stroke="#000000" stroke-width="2"/><path d="M196.6871,327.23893c0,27.80764 -3.79337,28.26107 -8.47273,28.26107c-4.67936,0 -8.47273,-0.45343 -8.47273,-28.26107c0,-22.71341 2.76625,-37.03807 5.7132,-44.24196c0.62132,-1.51882 1.74875,-2.88342 3.04196,-2.85983c1.29321,0.02359 2.01818,1.86335 2.81295,2.96663c3.40131,4.72164 5.37736,21.59448 5.37736,44.13516z" fill="#069e00" stroke="#000000" stroke-width="2"/><path d="M113.28517,329.08202c-1.44773,4.71256 -2.75183,4.3119 -4.33141,3.72287c-1.57957,-0.58903 -2.83646,-1.14338 -1.38873,-5.85594c1.18251,-3.84924 2.86206,-5.92863 4.23189,-6.77852c0.28881,-0.17919 0.74043,-0.26852 1.17574,-0.10173c0.43531,0.16678 0.58425,0.56983 0.79509,0.85684c0.90233,1.22833 0.69093,4.33651 -0.48258,8.15648z" data-paper-data="{&quot;index&quot;:null}" fill="#069e00" stroke="#000000" stroke-width="2"/><path d="M99.74325,335.21219c-0.41088,-0.63871 -1.10001,-1.2426 -1.10031,-2.23669c-0.0003,-0.99409 0.52191,-1.82542 1.09894,-2.26399c2.73689,-2.08018 8.15854,-3.83987 16.72602,-3.26043c10.48902,0.7094 10.63484,3.63518 10.60374,7.23004c-0.0311,3.59486 -0.22735,6.4975 -10.71637,5.7881c-8.50233,-0.57504 -14.85362,-2.52356 -16.61202,-5.25703z" data-paper-data="{&quot;index&quot;:null}" fill="#069e00" stroke="#000000" stroke-width="2"/><path d="M143.70638,304.95738c-9.10206,3.89874 -10.1809,1.37988 -11.32864,-1.80569c-1.14774,-3.18558 -1.92975,-5.83157 7.17231,-9.7303c7.4346,-3.1845 12.80188,-3.30969 15.88269,-2.31351c0.64954,0.21003 1.37273,0.78623 1.68221,1.66992c0.30947,0.88369 -0.11491,1.63517 -0.28109,2.33091c-0.71124,2.9775 -5.74941,6.68839 -13.12748,9.84867z" data-paper-data="{&quot;index&quot;:null}" fill="#069e00" stroke="#000000" stroke-width="2"/><path d="M140.00006,329.67644c0,29.83704 -4.07022,30.32356 -9.09107,30.32356c-5.02086,0 -9.09107,-0.48652 -9.09107,-30.32356c0,-24.37103 2.96813,-39.74111 6.13014,-47.47074c0.66666,-1.62967 1.87638,-3.09385 3.26397,-3.06853c1.38759,0.02531 2.16547,1.99934 3.01823,3.18313c3.64954,5.06623 5.7698,23.17044 5.7698,47.35614z" data-paper-data="{&quot;index&quot;:null}" fill="#069e00" stroke="#000000" stroke-width="2"/><path d="M408.67839,218.08323c0.1965,-0.26749 0.33532,-0.64312 0.74102,-0.79856c0.4057,-0.15544 0.8266,-0.07218 1.09577,0.09481c1.27666,0.79208 2.84197,2.73004 3.94405,6.31747c1.34926,4.39203 0.17786,4.90867 -1.29427,5.45764c-1.47214,0.54897 -2.68754,0.92237 -4.0368,-3.46965c-1.0937,-3.56015 -1.29072,-6.45692 -0.44976,-7.6017z" data-paper-data="{&quot;index&quot;:null}" fill="#069e00" stroke="#000000" stroke-width="2"/><path d="M439.73286,219.79763c-9.7756,0.66115 -9.9585,-2.04406 -9.98748,-5.39442c-0.02898,-3.35035 0.10692,-6.07713 9.88252,-6.73828c7.98476,-0.54003 13.03764,1.09998 15.58838,3.03867c0.53778,0.40875 1.02447,1.18352 1.02419,2.11001c-0.00028,0.92648 -0.64254,1.48929 -1.02547,2.08456c-1.6388,2.54755 -7.5581,4.36354 -15.48213,4.89947z" data-paper-data="{&quot;index&quot;:null}" fill="#069e00" stroke="#000000" stroke-width="2"/><path d="M406.00747,230.02236c-0.15489,-0.64841 -0.5504,-1.34879 -0.26198,-2.17237c0.28842,-0.82358 0.96243,-1.36059 1.56779,-1.55634c2.87126,-0.92843 7.87348,-0.81175 14.80241,2.15616c8.48297,3.63356 7.75415,6.09958 6.68447,9.06848c-1.06967,2.96891 -2.07513,5.31644 -10.5581,1.68288c-6.87624,-2.94533 -11.57173,-6.40382 -12.2346,-9.17881z" data-paper-data="{&quot;index&quot;:null}" fill="#069e00" stroke="#000000" stroke-width="2"/><path d="M424.07366,184.60377c0.79477,-1.10328 1.51974,-2.94304 2.81295,-2.96663c1.29321,-0.02359 2.42065,1.341 3.04197,2.85983c2.94694,7.20389 5.71319,21.52855 5.71319,44.24196c0,27.80764 -3.79337,28.26107 -8.47273,28.26107c-4.67936,0 -8.47273,-0.45343 -8.47273,-28.26107c0,-22.54068 1.97605,-39.41352 5.37736,-44.13516z" data-paper-data="{&quot;index&quot;:null}" fill="#069e00" stroke="#000000" stroke-width="2"/><path d="M473.25525,282.68494c-1.34926,4.39203 -2.56466,4.01863 -4.0368,3.46965c-1.47213,-0.54897 -2.64354,-1.06561 -1.29428,-5.45764c1.10208,-3.58743 2.66739,-5.52539 3.94405,-6.31747c0.26916,-0.167 0.69007,-0.25025 1.09577,-0.09481c0.4057,0.15544 0.54451,0.53107 0.74102,0.79856c0.84096,1.14478 0.64394,4.04156 -0.44976,7.6017z" data-paper-data="{&quot;index&quot;:null}" fill="#069e00" stroke="#000000" stroke-width="2"/><path d="M427.16841,271.89816c-0.38293,-0.59527 -1.02519,-1.15808 -1.02547,-2.08456c-0.00028,-0.92648 0.48641,-1.70126 1.02419,-2.11001c2.55074,-1.93869 7.60363,-3.5787 15.58838,-3.03867c9.7756,0.66115 9.9115,3.38793 9.88251,6.73828c-0.02898,3.35036 -0.21188,6.05557 -9.98748,5.39442c-7.92404,-0.53593 -13.84333,-2.35192 -15.48213,-4.89947z" data-paper-data="{&quot;index&quot;:null}" fill="#069e00" stroke="#000000" stroke-width="2"/><path d="M464.14134,296.20116c-8.48297,3.63356 -9.48843,1.28603 -10.55811,-1.68287c-1.06968,-2.9689 -1.7985,-5.43493 6.68448,-9.06849c6.92893,-2.96791 11.93114,-3.08458 14.80241,-2.15615c0.60536,0.19574 1.27936,0.73275 1.56779,1.55634c0.28843,0.82359 -0.10709,1.52396 -0.26198,2.17237c-0.66286,2.77499 -5.35836,6.23347 -12.23459,9.17881z" data-paper-data="{&quot;index&quot;:null}" fill="#069e00" stroke="#000000" stroke-width="2"/><path d="M463.6871,285.73893c0,27.80764 -3.79338,28.26107 -8.47273,28.26107c-4.67936,0 -8.47273,-0.45343 -8.47273,-28.26107c0,-22.71341 2.76625,-37.03807 5.7132,-44.24196c0.62131,-1.51882 1.74876,-2.88342 3.04197,-2.85983c1.29321,0.02359 2.01818,1.86335 2.81294,2.96663c3.40131,4.72164 5.37736,21.59448 5.37736,44.13516z" data-paper-data="{&quot;index&quot;:null}" fill="#069e00" stroke="#000000" stroke-width="2"/><path d="M146.67557,187.9362v-6h7v6z" fill="#d8cc61" stroke="none" stroke-width="0"/><path d="M270.67557,296.9362v-8h10v8z" fill="#d8cc61" stroke="none" stroke-width="0"/><path d="M326.67557,178.9362v-7h22v7z" fill="#d8cc61" stroke="none" stroke-width="0"/><path d="M247.67557,198.9362v-6h18v6z" fill="#d8cc61" stroke="none" stroke-width="0"/><path d="M244.67557,251.9362v-19h4v19z" fill="#d8cc61" stroke="none" stroke-width="0"/><path d="M92.67557,239.9362v-15h12v15z" fill="#d8cc61" stroke="none" stroke-width="0"/><path d="M358.67557,139.9362v-11h18v11z" fill="#d8cc61" stroke="none" stroke-width="0"/><path d="M298.23219,74.22027v-13h21v13z" fill="#d8cc61" stroke="none" stroke-width="0"/><path d="M53.23219,128.22027v-12h25v12z" fill="#d8cc61" stroke="none" stroke-width="0"/><path d="M75.23219,221.22027v-24h16v24z" fill="#d8cc61" stroke="none" stroke-width="0"/><path d="M248.23219,257.22027v-21h10v21z" fill="#d8cc61" stroke="none" stroke-width="0"/><path d="M239.23219,203.22027v-6h20v6z" fill="#d8cc61" stroke="none" stroke-width="0"/><path d="M149.23219,192.22027v-5h13v5z" fill="#d8cc61" stroke="none" stroke-width="0"/><path d="M104.23219,248.22027v-14h14v14z" fill="#d8cc61" stroke="none" stroke-width="0"/><path d="M49.23219,163.22027v-9h22v9z" fill="#d8cc61" stroke="none" stroke-width="0"/><path d="M398.17557,92.39643v-12h24v12z" fill="#d8cc61" stroke="none" stroke-width="0"/><path d="M442.17557,19.39643v-7h16v7z" fill="#d8cc61" stroke="none" stroke-width="0"/><path d="M429.17557,21.39643v-5h20v5z" fill="#d8cc61" stroke="none" stroke-width="0"/><path d="M382.17557,44.39643v-14h7v14z" fill="#d8cc61" stroke="none" stroke-width="0"/><path d="M378.17557,48.39643v-14h6v14z" fill="#d8cc61" stroke="none" stroke-width="0"/></g></g></svg>