<svg version="1.1" xmlns="http://www.w3.org/2000/svg" xmlns:xlink="http://www.w3.org/1999/xlink" width="57.99243" height="40.16667" viewBox="0,0,57.99243,40.16667">
	<g transform="translate(-222.00758,-161.41669)">
		<g data-paper-data="{&quot;isPaintingLayer&quot;:true}" fill-rule="nonzero" stroke="#000000" stroke-linecap="butt" stroke-linejoin="miter" stroke-miterlimit="10" stroke-dasharray="" stroke-dashoffset="0" style="mix-blend-mode: normal">
			<path d="M277.00001,167.33334v-3.5h2.5v3.5z" fill="#8b8b8b" stroke-width="1" />
			<path d="M253.50001,162.66669c5.33876,0 9.66667,1.45507 9.66667,3.25c0,1.79493 -4.32792,3.25 -9.66667,3.25c-5.33875,0 -9.66666,-1.45507 -9.66666,-3.25c0,-1.79493 4.32791,-3.25 9.66666,-3.25z" fill="#686868" stroke-width="2.5" />
			<path d="M239.75002,163.66668c6.12116,0 11.08334,6.79035 11.08334,15.16667c0,8.37631 -4.96219,15.16666 -11.08334,15.16666c-6.12116,0 -11.08334,-6.79034 -11.08334,-15.16666c0,-8.37632 4.96219,-15.16667 11.08334,-15.16667z" fill="#686868" stroke-width="2.5" />
			<path d="M225.72057,185.50603c0,-2.4089 0.2357,-8.92146 0.2357,-13.31717c0,-2.49057 2.46522,-4.30156 4.41941,-4.30156c2.31627,0 8.05382,0 12.25652,0c2.78158,0 4.77297,2.43039 4.77297,4.30156c0,2.38975 0.04626,8.56266 0.08082,12.83989c0.02059,2.54938 -2.25291,4.42531 -5.20734,4.42531c-4.16516,0 -9.65102,0 -11.90297,0c-1.95419,0 -4.65512,-2.16163 -4.65512,-3.94802z" fill="#fff700" stroke-width="2.5" />
			<path d="M233.41929,166.83335c5.61216,0 10.1617,5.18603 10.1617,11.58333c0,6.3973 -4.54954,11.58334 -10.1617,11.58334c-5.61216,0 -10.16171,-5.18604 -10.16171,-11.58334c0,-6.3973 4.54955,-11.58333 10.16171,-11.58333z" fill="#2f3a56" stroke-width="2.5" />
			<path d="M227.25758,184.50002v-12.16666h12.16667v12.16666z" fill="#2f3a56" stroke-width="2.5" />
			<path d="M238.75002,193.66668c1.70288,0 3.08334,1.49239 3.08334,3.33334c0,1.84095 -1.38046,3.33334 -3.08334,3.33334c-1.70288,0 -3.08334,-1.49239 -3.08334,-3.33334c0,-1.84095 1.38046,-3.33334 3.08334,-3.33334z" fill="#686868" stroke-width="2.5" />
			<path d="M262.83333,168.50002v-5.66666h15v5.66666z" fill="#8b8b8b" stroke-width="1" />
			<path d="M264.66668,166.66669v-2.16666h12.83333v2.16666z" fill="#8b8b8b" stroke-width="1" />
			<path d="M260.00001,167v-3h4.5v3z" fill="#8b8b8b" stroke-width="1" />
		</g>
	</g>
</svg>
