<svg version="1.1" xmlns="http://www.w3.org/2000/svg" xmlns:xlink="http://www.w3.org/1999/xlink" width="60.32927" height="49.21904" viewBox="0,0,60.32927,49.21904"><g transform="translate(-221.66342,-152.99593)"><g data-paper-data="{&quot;isPaintingLayer&quot;:true}" fill-rule="nonzero" stroke-linecap="butt" stroke-linejoin="miter" stroke-miterlimit="10" stroke-dasharray="" stroke-dashoffset="0" style="mix-blend-mode: normal"><path d="M267.94692,165.78789v-3.5h2.09855v3.5z" fill="#8b8b8b" stroke="#000000" stroke-width="1"/><path d="M248.2205,161.12122c4.48147,0 8.11442,1.45507 8.11442,3.25c0,1.79493 -3.63295,3.25 -8.11442,3.25c-4.48146,0 -8.11441,-1.45507 -8.11441,-3.25c0,-1.79493 3.63295,-3.25 8.11441,-3.25z" fill="#c79100" stroke="#000000" stroke-width="2.5"/><path d="M256.0551,166.95455v-5.66666h12.59133v5.66666z" fill="#8b8b8b" stroke="#000000" stroke-width="1"/><path d="M257.59405,165.12122v-2.16666h10.77258v2.16666z" fill="#8b8b8b" stroke="#000000" stroke-width="1"/><path d="M253.67676,165.45455v-3h3.7774v3z" fill="#8b8b8b" stroke="#000000" stroke-width="1"/><path d="M234.90195,163.94332c5.9125,-1.5846 12.46336,3.68971 14.63175,11.78049c2.16839,8.09077 -0.86681,15.93423 -6.7793,17.51882c-5.9125,1.5846 -12.46336,-3.6897 -14.63175,-11.78048c-2.16839,-8.09078 0.86681,-15.93424 6.77929,-17.51883z" fill="#c79100" stroke="#000000" stroke-width="2.5"/><path d="M225.08058,185.09887c0.13742,-2.40498 0.74429,-8.89348 0.99506,-13.28203c0.14209,-2.48651 2.70661,-4.15391 4.65762,-4.04243c2.3125,0.13214 8.0407,0.45947 12.23656,0.69923c2.77704,0.15869 4.62654,2.69873 4.51979,4.56686c-0.13634,2.38585 -0.44232,8.55136 -0.65183,12.82359c-0.12489,2.5464 -2.50171,4.28958 -5.45132,4.12103c-4.15838,-0.23762 -9.63531,-0.55059 -11.88358,-0.67907c-1.95101,-0.11149 -4.52422,-2.42368 -4.42231,-4.20716z" fill="#fff700" stroke="#000000" stroke-width="2.5"/><path d="M233.74129,166.89064c5.60302,0.32018 9.84929,5.75732 9.48431,12.14419c-0.36496,6.38689 -5.20296,11.30492 -10.80598,10.98475c-5.60302,-0.32018 -9.8493,-5.75732 -9.48433,-12.1442c0.36496,-6.38689 5.20297,-11.30491 10.80599,-10.98474z" fill="#734b2c" stroke="#000000" stroke-width="2.5"/><path d="M226.49208,184.16188l0.69411,-12.14685l12.14686,0.69411l-0.69411,12.14685z" fill="#734b2c" stroke="#000000" stroke-width="2.5"/><path d="M239.51702,194.52555c1.64484,-0.44083 3.36457,0.64333 3.84114,2.42152c0.47657,1.77819 -0.47049,3.57707 -2.11533,4.0179c-1.64484,0.44083 -3.36457,-0.64333 -3.84114,-2.42152c-0.47657,-1.77819 0.47049,-3.57707 2.11533,-4.0179z" fill="#c79100" stroke="#000000" stroke-width="2.5"/><path d="M260.24213,168.09652l10.05175,-5.04325l-3.40178,-10.05734l4.63465,9.32547l10.46594,-2.6755l-9.93561,4.36596l3.28563,10.73463l-4.72001,-9.54518z" fill="#ffb900" stroke="none" stroke-width="NaN"/><path d="M268.3047,170.82213l2.0166,-6.77328l-6.06941,-2.77065l6.26485,1.89115l3.27907,-5.94395l-2.27675,6.42862l6.32955,3.11532l-6.4022,-1.9466z" fill="#fff900" stroke="none" stroke-width="NaN"/></g></g></svg>