<svg version="1.1" xmlns="http://www.w3.org/2000/svg" xmlns:xlink="http://www.w3.org/1999/xlink" width="24.66668" height="47.83335" viewBox="0,0,24.66668,47.83335"><g transform="translate(-227.66666,-156.84364)"><g data-paper-data="{&quot;isPaintingLayer&quot;:true}" fill-rule="nonzero" stroke="#000000" stroke-width="2.5" stroke-linecap="butt" stroke-linejoin="miter" stroke-miterlimit="10" stroke-dasharray="" stroke-dashoffset="0" style="mix-blend-mode: normal"><path d="M240,164.83334c6.12116,0 11.08334,6.79035 11.08334,15.16667c0,8.37631 -4.96219,15.16666 -11.08334,15.16666c-6.12116,0 -11.08334,-6.79034 -11.08334,-15.16666c0,-8.37632 4.96219,-15.16667 11.08334,-15.16667z" fill="#009218"/><path d="M229.11723,186.83535c0,-2.4089 0.2357,-8.92146 0.2357,-13.31717c0,-2.49057 2.46522,-4.30156 4.41941,-4.30156c2.31627,0 8.05382,0 12.25652,0c2.78158,0 4.77297,2.43039 4.77297,4.30156c0,2.38975 0.04626,8.56266 0.08082,12.83989c0.02059,2.54938 -2.25291,4.42531 -5.20734,4.42531c-4.16516,0 -9.65102,0 -11.90297,0c-1.95419,0 -4.65512,-2.16163 -4.65512,-3.94802z" fill="#fff700"/><path d="M237.79396,161.42698c0,-1.84095 1.56321,-3.33334 3.49151,-3.33334c1.92831,0 3.49151,1.49239 3.49151,3.33334c0,1.84095 -1.56321,3.33334 -3.49151,3.33334c-1.92831,0 -3.49151,-1.49239 -3.49151,-3.33334z" data-paper-data="{&quot;index&quot;:null}" fill="#009218"/><path d="M237.79396,200.09365c0,-1.84095 1.56321,-3.33334 3.49151,-3.33334c1.92831,0 3.49151,1.49239 3.49151,3.33334c0,1.84095 -1.56321,3.33334 -3.49151,3.33334c-1.92831,0 -3.49151,-1.49239 -3.49151,-3.33334z" data-paper-data="{&quot;index&quot;:null}" fill="#009218"/></g></g></svg>