<svg version="1.1" xmlns="http://www.w3.org/2000/svg" xmlns:xlink="http://www.w3.org/1999/xlink" width="62.34932" height="37.75242" viewBox="0,0,62.34932,37.75242"><g transform="translate(-217.69673,-155.91589)"><g data-paper-data="{&quot;isPaintingLayer&quot;:true}" fill-rule="nonzero" stroke-linecap="butt" stroke-linejoin="miter" stroke-miterlimit="10" stroke-dasharray="" stroke-dashoffset="0" style="mix-blend-mode: normal"><path d="M248.19786,173.59622c2.25509,-4.83911 5.40207,-8.14734 7.02901,-7.38917c1.62695,0.75817 1.11773,5.29567 -1.13735,10.13477c-2.25508,4.8391 -5.40208,8.14734 -7.02902,7.38916c-1.62695,-0.75817 -1.11772,-5.29566 1.13735,-10.13475z" fill="#c79100" stroke="#000000" stroke-width="2.5"/><path d="M232.71144,161.98193c5.30966,0.55666 9.46226,2.45505 9.27511,4.2402c-0.18715,1.78515 -4.6432,2.78103 -9.95285,2.22437c-5.30965,-0.55666 -9.46225,-2.45506 -9.2751,-4.2402c0.18715,-1.78515 4.64319,-2.78102 9.95284,-2.22437z" fill="#c79100" stroke="#000000" stroke-width="2.5"/><path d="M223.59363,170.17943c3.8034,-4.79612 12.20711,-4.46494 18.77021,0.73971c6.5631,5.20464 8.80028,13.31188 4.99689,18.10799c-3.8034,4.79612 -12.2071,4.46494 -18.77021,-0.73971c-6.56311,-5.20465 -8.80028,-13.31188 -4.99689,-18.10799z" fill="#c79100" stroke="#000000" stroke-width="2.5"/><g stroke="#000000"><path d="M244.66537,169.67777l-0.05704,-4.86627l14.70693,-0.1724l0.05704,4.86627z" fill="#b86b14" stroke-width="0.5"/><path d="M219.92518,171.35766c-0.29332,-0.45123 -0.25237,-6.29256 0.19978,-7.23533c0.45216,-0.94276 0.75856,-0.7367 1.42883,-0.71167c2.19908,0.08209 14.11972,1.93536 14.11972,1.93536l-0.08241,3.56133c0,0 -12.67777,2.86717 -14.6238,3.16571c-0.49943,0.07662 -0.74879,-0.26416 -1.04211,-0.71539z" fill="#b86b14" stroke-width="1"/><path d="M231.89861,169.28666l-3.77679,-1.35624l0.01934,-1.30468l3.9013,-1.018l8.34831,-0.1805l0.12587,0.62193l28.65323,-0.33589l0.02916,2.4872l-28.76136,0.33715l0.10905,0.68531z" fill="#8b8b8b" stroke-width="1"/></g><g stroke="#000000" stroke-width="2.5"><path d="M221.71066,187.8957c-0.10631,-2.40655 -0.15826,-8.92317 -0.35225,-13.3146c-0.10992,-2.48814 2.27298,-4.40617 4.22526,-4.49241c2.31401,-0.10222 8.04597,-0.35544 12.24458,-0.54092c2.77887,-0.12276 4.87558,2.21738 4.95816,4.08672c0.10547,2.38742 0.42411,8.55228 0.6474,12.82381c0.13308,2.54599 -2.05541,4.52043 -5.00696,4.65081c-4.1611,0.18382 -9.64162,0.42593 -11.89137,0.52531c-1.95229,0.08624 -4.74598,-1.95408 -4.82482,-3.73873z" fill="#fff700"/><path d="M228.58734,169.11753c5.60669,-0.24768 10.38067,4.73251 10.663,11.12358c0.28233,6.39107 -4.0339,11.77284 -9.64059,12.02052c-5.60669,0.24768 -10.38068,-4.73252 -10.66302,-11.12359c-0.28233,-6.39107 4.03391,-11.77283 9.6406,-12.02051z" fill="#734b2c"/><path d="M223.20177,186.82284l-0.53695,-12.15481l12.15482,-0.53695l0.53695,12.15481z" fill="#734b2c"/></g><path d="M258.2955,171.01648l10.05175,-5.04325l-3.40178,-10.05734l4.63465,9.32547l10.46594,-2.6755l-9.93561,4.36596l3.28563,10.73463l-4.72001,-9.54518z" fill="#ffb900" stroke="none" stroke-width="NaN"/><path d="M266.35807,173.74209l2.0166,-6.77328l-6.06941,-2.77065l6.26485,1.89115l3.27907,-5.94395l-2.27675,6.42862l6.32955,3.11532l-6.4022,-1.9466z" fill="#fff900" stroke="none" stroke-width="NaN"/></g></g></svg>