<svg version="1.1" xmlns="http://www.w3.org/2000/svg" xmlns:xlink="http://www.w3.org/1999/xlink" width="41.57827" height="53.87255" viewBox="0,0,41.57827,53.87255"><g transform="translate(-219.21086,-153.06345)"><g data-paper-data="{&quot;isPaintingLayer&quot;:true}" fill-rule="nonzero" stroke="#000000" stroke-width="1.5" stroke-linecap="butt" stroke-linejoin="miter" stroke-miterlimit="10" stroke-dasharray="" stroke-dashoffset="0" style="mix-blend-mode: normal"><path d="M239.69654,153.81345c9.93114,0 17.98192,7.18064 17.98192,16.0384c0,8.85776 -8.05078,16.0384 -17.98192,16.0384c-9.93114,0 -17.98192,-7.18064 -17.98192,-16.0384c0,-8.85776 8.05078,-16.0384 17.98192,-16.0384z" fill="#313131"/><path d="M220.4376,183.03143c0,-12.13729 1.83727,-23.41595 5.32736,-23.06735c3.2928,0.3289 7.91767,5.24629 13.45704,5.24629c5.69979,0 10.39142,-5.48495 14.12942,-5.86019c3.74525,-0.37597 6.68772,11.08543 6.68772,22.8911c0,23.5885 -7.99923,23.94472 -19.40986,23.94472c-11.41064,0 -20.19169,0.43393 -20.19169,-23.15457z" fill="#545454"/><path d="M223.69672,161.92903c0.61636,-1.02091 1.79251,0.12131 2.64281,0.46956c2.38349,0.97619 3.26991,5.56211 1.97989,12.20355c-1.29002,6.64144 -4.77444,7.91207 -6.65148,10.25784c-2.85258,3.56491 -1.5499,-6.69738 -0.25988,-13.33882c0.82982,-4.27214 1.17727,-7.75131 2.28866,-9.59213z" fill="#313131"/><path d="M258.42491,170.61294c1.29002,6.64144 2.5927,16.90373 -0.25988,13.33882c-1.87704,-2.34577 -5.36146,-3.6164 -6.65148,-10.25784c-1.29002,-6.64144 -0.4036,-11.22736 1.97989,-12.20355c0.8503,-0.34825 2.02645,-1.49047 2.64282,-0.46956c1.11139,1.84082 1.45884,5.31999 2.28866,9.59213z" data-paper-data="{&quot;index&quot;:null}" fill="#313131"/></g></g></svg>