<svg version="1.1" xmlns="http://www.w3.org/2000/svg" xmlns:xlink="http://www.w3.org/1999/xlink" width="43.52883" height="35.25" viewBox="0,0,43.52883,35.25"><g transform="translate(-222.01285,-161.41669)"><g data-paper-data="{&quot;isPaintingLayer&quot;:true}" fill-rule="nonzero" stroke="#000000" stroke-width="2.5" stroke-linecap="butt" stroke-linejoin="miter" stroke-miterlimit="10" stroke-dasharray="" stroke-dashoffset="0" style="mix-blend-mode: normal"><path d="M254.62501,188.91669c5.33876,0 9.66667,1.45507 9.66667,3.25c0,1.79493 -4.32792,3.25 -9.66667,3.25c-5.33875,0 -9.66666,-1.45507 -9.66666,-3.25c0,-1.79493 4.32791,-3.25 9.66666,-3.25z" fill="#c79100"/><path d="M253.50001,162.66669c5.33876,0 9.66667,1.45507 9.66667,3.25c0,1.79493 -4.32792,3.25 -9.66667,3.25c-5.33875,0 -9.66666,-1.45507 -9.66666,-3.25c0,-1.79493 4.32791,-3.25 9.66666,-3.25z" fill="#c79100"/><path d="M239.75002,163.66668c6.12116,0 11.08334,6.79035 11.08334,15.16667c0,8.37631 -4.96219,15.16666 -11.08334,15.16666c-6.12116,0 -11.08334,-6.79034 -11.08334,-15.16666c0,-8.37632 4.96219,-15.16667 11.08334,-15.16667z" fill="#c79100"/><path d="M225.72057,185.50603c0,-2.4089 0.2357,-8.92146 0.2357,-13.31717c0,-2.49057 2.46522,-4.30156 4.41941,-4.30156c2.31627,0 8.05382,0 12.25652,0c2.78158,0 4.77297,2.43039 4.77297,4.30156c0,2.38975 0.04626,8.56266 0.08082,12.83989c0.02059,2.54938 -2.25291,4.42531 -5.20734,4.42531c-4.16516,0 -9.65102,0 -11.90297,0c-1.95419,0 -4.65512,-2.16163 -4.65512,-3.94802z" fill="#1a7900"/><path d="M233.31319,166.4589c5.6119,-0.0595 10.21089,5.63477 10.27214,12.71851c0.04515,5.22149 -2.38779,9.74045 -5.91763,11.77941c-0.51378,-1.91114 -2.7468,-1.22146 -3.85444,-1.52385c-0.71508,-0.19522 -1.33909,-0.9493 -2.07052,-0.85393c-0.47747,0.06226 -0.42954,1.1766 -0.90665,1.24212c-0.46074,0.06327 -0.62375,-1.03831 -1.08375,-0.96879c-0.80116,0.12108 -1.44479,0.52247 -1.97975,1.07631c-2.68817,-2.28324 -4.47175,-6.14227 -4.50974,-10.5358c-0.06125,-7.08374 4.43844,-12.87448 10.05034,-12.93398z" fill="#734b2c"/><path d="M227.32091,186.08657l-0.11649,-13.47216l12.16611,-0.12899l0.11649,13.47216z" fill="#734b2c"/></g></g></svg>